<?xml version="1.0" encoding="utf-8"?>
<svg version="1.1" id="Capa_1" xmlns="http://www.w3.org/2000/svg" xmlns:xlink="http://www.w3.org/1999/xlink" x="0px" y="0px"
	 viewBox="-1411 1413 56 56" style="enable-background:new -1411 1413 56 56;" xml:space="preserve">
<style type="text/css">
	.st0{fill:rgba(56,195,0,0.8);}
	.st1{fill:rgba(56,195,0,1);}
	.st2{fill:rgba(56,195,0,0.8);}
	.st3{fill:rgba(56,195,0,1);}
</style>
<rect x="-1401" y="1419" class="st0" width="36" height="44"/>
<path class="st1" d="M-1401,1440h36v2h-36V1440z"/>
<path class="st1" d="M-1401,1419h36v2h-36V1419z"/>
<path class="st1" d="M-1401,1461h36v2h-36V1461z"/>
<path class="st2" d="M-1365,1452v11h10v-11H-1365z M-1358,1460h-4v-5h4V1460z"/>
<path class="st3" d="M-1365,1441v11h10v-11H-1365z M-1358,1449h-4v-5h4V1449z"/>
<path class="st2" d="M-1365,1430v11h10v-11H-1365z M-1358,1438h-4v-5h4V1438z"/>
<path class="st3" d="M-1365,1419v11h10v-11H-1365z M-1358,1427h-4v-5h4V1427z"/>
<path class="st2" d="M-1411,1452v11h10v-11H-1411z M-1404,1460h-4v-5h4V1460z"/>
<path class="st3" d="M-1411,1441v11h10v-11H-1411z M-1404,1449h-4v-5h4V1449z"/>
<path class="st2" d="M-1411,1430v11h10v-11H-1411z M-1404,1438h-4v-5h4V1438z"/>
<path class="st3" d="M-1411,1419v11h10v-11H-1411z M-1404,1427h-4v-5h4V1427z"/>
</svg>
