<?xml version="1.0" encoding="utf-8"?>
<!-- Generator: Adobe Illustrator 19.0.0, SVG Export Plug-In . SVG Version: 6.00 Build 0)  -->
<svg version="1.1" id="Layer_1" xmlns="http://www.w3.org/2000/svg" xmlns:xlink="http://www.w3.org/1999/xlink" x="0px" y="0px"
	 viewBox="-665 765.8 1549 1351.2" style="enable-background:new -665 765.8 1549 1351.2;" xml:space="preserve">
<style type="text/css">
	.st0{fill:rgba(56,195,0,1);}
	.st1{fill:none;stroke:rgba(56,195,0,1);stroke-width:80;stroke-miterlimit:10;}
</style>
<path id="XMLID_4_" class="st0" d="M-23.7,1915.8L258.4,2109c33.6,23,75.2-6.4,75.2-53.1V826.8c0-46.7-41.6-76-75.2-53.1
	L-23.8,966.9l-578.7,103.8c-35.9,6.4-62.5,43.7-62.5,87.7v566.1c0,43.9,26.6,81.2,62.5,87.7L-23.7,1915.8"/>
<path class="st1" d="M442.1,1133.4c0,0,136,308,0,616"/>
<path class="st1" d="M594.9,1016c0,0,187.8,425.4,0,850.8"/>
<path class="st1" d="M743.7,912c0,0,233.8,529.4,0,1058.8"/>
</svg>
